<svg xmlns="http://www.w3.org/2000/svg" viewBox="0 0 180 180">
  <rect width="180" height="180" fill="#70c5ce"/>
  <rect y="136" width="180" height="44" fill="#ded895"/>
  <rect y="130" width="180" height="6" fill="#92d74f"/>
  <rect x="114" y="28" width="28" height="88" fill="#245e1b"/>
  <rect x="118" y="28" width="20" height="88" fill="#67b832"/>
  <rect x="110" y="98" width="36" height="16" fill="#245e1b"/>
  <rect x="114" y="102" width="28" height="8" fill="#67b832"/>
  <rect x="36" y="74" width="54" height="38" fill="#5b3a1d"/>
  <rect x="44" y="80" width="42" height="28" fill="#f7d51d"/>
  <rect x="30" y="88" width="23" height="21" fill="#5b3a1d"/>
  <rect x="35" y="92" width="17" height="14" fill="#fff3a3"/>
  <rect x="78" y="64" width="23" height="23" fill="#5b3a1d"/>
  <rect x="83" y="69" width="13" height="13" fill="#ffffff"/>
  <rect x="92" y="75" width="4" height="4" fill="#22313f"/>
  <rect x="96" y="86" width="25" height="16" fill="#5b3a1d"/>
  <rect x="101" y="90" width="17" height="6" fill="#e86f1c"/>
</svg>
